<svg width="160" height="48" viewBox="0 0 160 48" fill="none" xmlns="http://www.w3.org/2000/svg">
  <rect width="48" height="48" rx="16" fill="#2F54D3"/>
  <path d="M15 15H33V21H21V24H31V30H21V33H33V39H15V15Z" fill="white"/>
  <path d="M63 16H73.2C82.4 16 88.2 21.2 88.2 30C88.2 38.8 82.4 44 73.2 44H63V16ZM72.8 39C79 39 82.2 35.6 82.2 30C82.2 24.4 79 21 72.8 21H68.8V39H72.8Z" fill="#0F172A"/>
  <path d="M92.3 16H98.1V44H92.3V16Z" fill="#0F172A"/>
  <path d="M103.3 16H109.1L121.4 32.9V16H127.2V44H121.9L109.1 26.5V44H103.3V16Z" fill="#0F172A"/>
  <path d="M146.6 44.5C137.8 44.5 131.4 38.5 131.4 30C131.4 21.5 137.8 15.5 146.8 15.5C151.6 15.5 155.6 17.2 158.2 20.1L154.5 23.6C152.6 21.6 150.4 20.6 147.1 20.6C141.2 20.6 137.4 24.4 137.4 30C137.4 35.6 141.2 39.4 147.1 39.4C149.9 39.4 152.2 38.6 154 37V33.1H147V28.4H159.4V39.4C156.5 42.8 152.2 44.5 146.6 44.5Z" fill="#0F172A"/>
</svg>
